<mxfile host="app.diagrams.net" agent="Mozilla/5.0 (Macintosh; Intel Mac OS X 10_15_7) AppleWebKit/537.36 (KHTML, like Gecko) Chrome/141.0.0.0 Safari/537.36" version="28.2.8">
  <diagram name="BookMyShow Microservices Architecture" id="1tJ-K-LUkxU7NfIFxGOb">
    <mxGraphModel dx="1738" dy="976" grid="1" gridSize="10" guides="1" tooltips="1" connect="1" arrows="1" fold="1" page="1" pageScale="1" pageWidth="850" pageHeight="1100" math="0" shadow="0">
      <root>
        <mxCell id="0" />
        <mxCell id="1" parent="0" />
        <mxCell id="hyTh4UXsZ2b6pAhjTeu0-1" value="BookMyShow-Style Microservices Architecture" style="text;html=1;strokeColor=none;fillColor=none;align=center;verticalAlign=middle;whiteSpace=wrap;rounded=0;fontSize=24;fontStyle=1;fontColor=#1f497d;" vertex="1" parent="1">
          <mxGeometry x="527" y="20" width="600" height="40" as="geometry" />
        </mxCell>
        <mxCell id="hyTh4UXsZ2b6pAhjTeu0-2" value="FRONTEND LAYER" style="rounded=1;whiteSpace=wrap;html=1;fillColor=#e1d5e7;strokeColor=#9673a6;fontSize=14;fontStyle=1;" vertex="1" parent="1">
          <mxGeometry x="50" y="80" width="1554" height="60" as="geometry" />
        </mxCell>
        <mxCell id="hyTh4UXsZ2b6pAhjTeu0-3" value="React Web App&#xa;(Customer Portal)" style="rounded=1;whiteSpace=wrap;html=1;fillColor=#dae8fc;strokeColor=#6c8ebf;" vertex="1" parent="1">
          <mxGeometry x="100" y="160" width="150" height="80" as="geometry" />
        </mxCell>
        <mxCell id="hyTh4UXsZ2b6pAhjTeu0-4" value="React Admin&#xa;(Theater Management)" style="rounded=1;whiteSpace=wrap;html=1;fillColor=#dae8fc;strokeColor=#6c8ebf;" vertex="1" parent="1">
          <mxGeometry x="280" y="160" width="150" height="80" as="geometry" />
        </mxCell>
        <mxCell id="hyTh4UXsZ2b6pAhjTeu0-5" value="React Native&#xa;Mobile App" style="rounded=1;whiteSpace=wrap;html=1;fillColor=#dae8fc;strokeColor=#6c8ebf;" vertex="1" parent="1">
          <mxGeometry x="460" y="160" width="150" height="80" as="geometry" />
        </mxCell>
        <mxCell id="hyTh4UXsZ2b6pAhjTeu0-6" value="API GATEWAY LAYER" style="rounded=1;whiteSpace=wrap;html=1;fillColor=#fff2cc;strokeColor=#d6b656;fontSize=14;fontStyle=1;" vertex="1" parent="1">
          <mxGeometry x="50" y="280" width="1554" height="60" as="geometry" />
        </mxCell>
        <mxCell id="hyTh4UXsZ2b6pAhjTeu0-7" value="AWS Application&#xa;Load Balancer" style="rounded=1;whiteSpace=wrap;html=1;fillColor=#f8cecc;strokeColor=#b85450;" vertex="1" parent="1">
          <mxGeometry x="100" y="360" width="150" height="80" as="geometry" />
        </mxCell>
        <mxCell id="hyTh4UXsZ2b6pAhjTeu0-8" value="Kong API Gateway&#xa;(Rate Limiting, Auth)" style="rounded=1;whiteSpace=wrap;html=1;fillColor=#f8cecc;strokeColor=#b85450;" vertex="1" parent="1">
          <mxGeometry x="280" y="360" width="150" height="80" as="geometry" />
        </mxCell>
        <mxCell id="hyTh4UXsZ2b6pAhjTeu0-9" value="Authentication&#xa;Service (JWT)" style="rounded=1;whiteSpace=wrap;html=1;fillColor=#f8cecc;strokeColor=#b85450;" vertex="1" parent="1">
          <mxGeometry x="460" y="360" width="150" height="80" as="geometry" />
        </mxCell>
        <mxCell id="hyTh4UXsZ2b6pAhjTeu0-10" value="CORE MICROSERVICES LAYER" style="rounded=1;whiteSpace=wrap;html=1;fillColor=#d5e8d4;strokeColor=#82b366;fontSize=14;fontStyle=1;" vertex="1" parent="1">
          <mxGeometry x="50" y="480" width="1554" height="60" as="geometry" />
        </mxCell>
        <mxCell id="hyTh4UXsZ2b6pAhjTeu0-11" value="User Service&#xa;(Registration, Profile)" style="rounded=1;whiteSpace=wrap;html=1;fillColor=#d5e8d4;strokeColor=#82b366;" vertex="1" parent="1">
          <mxGeometry x="80" y="560" width="120" height="80" as="geometry" />
        </mxCell>
        <mxCell id="hyTh4UXsZ2b6pAhjTeu0-12" value="Movie Catalog&#xa;Service (MongoDB)" style="rounded=1;whiteSpace=wrap;html=1;fillColor=#d5e8d4;strokeColor=#82b366;" vertex="1" parent="1">
          <mxGeometry x="220" y="560" width="120" height="80" as="geometry" />
        </mxCell>
        <mxCell id="hyTh4UXsZ2b6pAhjTeu0-13" value="Theater &amp; Show&#xa;Management Service" style="rounded=1;whiteSpace=wrap;html=1;fillColor=#d5e8d4;strokeColor=#82b366;" vertex="1" parent="1">
          <mxGeometry x="360" y="560" width="120" height="80" as="geometry" />
        </mxCell>
        <mxCell id="hyTh4UXsZ2b6pAhjTeu0-14" value="Booking Service&#xa;(Current Project)" style="rounded=1;whiteSpace=wrap;html=1;fillColor=#ffe6cc;strokeColor=#d79b00;fontStyle=1;" vertex="1" parent="1">
          <mxGeometry x="500" y="560" width="120" height="80" as="geometry" />
        </mxCell>
        <mxCell id="hyTh4UXsZ2b6pAhjTeu0-15" value="Seat Management&#xa;Service (Redis Lock)" style="rounded=1;whiteSpace=wrap;html=1;fillColor=#d5e8d4;strokeColor=#82b366;" vertex="1" parent="1">
          <mxGeometry x="640" y="560" width="120" height="80" as="geometry" />
        </mxCell>
        <mxCell id="hyTh4UXsZ2b6pAhjTeu0-16" value="Payment Service&#xa;(Stripe/Razorpay)" style="rounded=1;whiteSpace=wrap;html=1;fillColor=#d5e8d4;strokeColor=#82b366;" vertex="1" parent="1">
          <mxGeometry x="780" y="560" width="120" height="80" as="geometry" />
        </mxCell>
        <mxCell id="hyTh4UXsZ2b6pAhjTeu0-17" value="Notification Service&#xa;(Email, SMS, Push)" style="rounded=1;whiteSpace=wrap;html=1;fillColor=#d5e8d4;strokeColor=#82b366;" vertex="1" parent="1">
          <mxGeometry x="920" y="560" width="120" height="80" as="geometry" />
        </mxCell>
        <mxCell id="hyTh4UXsZ2b6pAhjTeu0-18" value="Analytics &amp;&#xa;Reporting Service" style="rounded=1;whiteSpace=wrap;html=1;fillColor=#d5e8d4;strokeColor=#82b366;" vertex="1" parent="1">
          <mxGeometry x="1060" y="560" width="120" height="80" as="geometry" />
        </mxCell>
        <mxCell id="hyTh4UXsZ2b6pAhjTeu0-19" value="EVENT-DRIVEN ARCHITECTURE" style="rounded=1;whiteSpace=wrap;html=1;fillColor=#f0f0f0;strokeColor=#666666;fontSize=14;fontStyle=1;" vertex="1" parent="1">
          <mxGeometry x="50" y="680" width="1554" height="60" as="geometry" />
        </mxCell>
        <mxCell id="hyTh4UXsZ2b6pAhjTeu0-20" value="Apache Kafka&#xa;(Event Streaming)" style="rounded=1;whiteSpace=wrap;html=1;fillColor=#f0f0f0;strokeColor=#666666;" vertex="1" parent="1">
          <mxGeometry x="200" y="760" width="150" height="80" as="geometry" />
        </mxCell>
        <mxCell id="hyTh4UXsZ2b6pAhjTeu0-21" value="AWS EventBridge&#xa;(Event Routing)" style="rounded=1;whiteSpace=wrap;html=1;fillColor=#f0f0f0;strokeColor=#666666;" vertex="1" parent="1">
          <mxGeometry x="380" y="760" width="150" height="80" as="geometry" />
        </mxCell>
        <mxCell id="hyTh4UXsZ2b6pAhjTeu0-22" value="Booking Expiry&#xa;Scheduler" style="rounded=1;whiteSpace=wrap;html=1;fillColor=#f0f0f0;strokeColor=#666666;" vertex="1" parent="1">
          <mxGeometry x="560" y="760" width="150" height="80" as="geometry" />
        </mxCell>
        <mxCell id="hyTh4UXsZ2b6pAhjTeu0-23" value="DATABASE LAYER (POLYGLOT PERSISTENCE)" style="rounded=1;whiteSpace=wrap;html=1;fillColor=#e1d5e7;strokeColor=#9673a6;fontSize=14;fontStyle=1;" vertex="1" parent="1">
          <mxGeometry x="50" y="880" width="1554" height="60" as="geometry" />
        </mxCell>
        <mxCell id="hyTh4UXsZ2b6pAhjTeu0-24" value="PostgreSQL&#xa;(Transactional Data)&#xa;Users, Bookings, Payments" style="rounded=1;whiteSpace=wrap;html=1;fillColor=#e1d5e7;strokeColor=#9673a6;" vertex="1" parent="1">
          <mxGeometry x="100" y="960" width="150" height="100" as="geometry" />
        </mxCell>
        <mxCell id="hyTh4UXsZ2b6pAhjTeu0-25" value="MongoDB&#xa;(Catalog Data)&#xa;Movies, Theaters, Reviews" style="rounded=1;whiteSpace=wrap;html=1;fillColor=#e1d5e7;strokeColor=#9673a6;" vertex="1" parent="1">
          <mxGeometry x="280" y="960" width="150" height="100" as="geometry" />
        </mxCell>
        <mxCell id="hyTh4UXsZ2b6pAhjTeu0-26" value="Redis&#xa;(Caching &amp; Sessions)&#xa;Seat Locks, Cache" style="rounded=1;whiteSpace=wrap;html=1;fillColor=#e1d5e7;strokeColor=#9673a6;" vertex="1" parent="1">
          <mxGeometry x="460" y="960" width="150" height="100" as="geometry" />
        </mxCell>
        <mxCell id="hyTh4UXsZ2b6pAhjTeu0-27" value="Elasticsearch&#xa;(Search Engine)&#xa;Movie Search, Analytics" style="rounded=1;whiteSpace=wrap;html=1;fillColor=#e1d5e7;strokeColor=#9673a6;" vertex="1" parent="1">
          <mxGeometry x="640" y="960" width="150" height="100" as="geometry" />
        </mxCell>
        <mxCell id="hyTh4UXsZ2b6pAhjTeu0-28" value="AWS CLOUD SERVICES" style="rounded=1;whiteSpace=wrap;html=1;fillColor=#fff2cc;strokeColor=#d6b656;fontSize=14;fontStyle=1;" vertex="1" parent="1">
          <mxGeometry x="1200" y="480" width="404" height="60" as="geometry" />
        </mxCell>
        <mxCell id="hyTh4UXsZ2b6pAhjTeu0-29" value="AWS SES&#xa;(Email Service)" style="rounded=1;whiteSpace=wrap;html=1;fillColor=#fff2cc;strokeColor=#d6b656;" vertex="1" parent="1">
          <mxGeometry x="1230" y="570" width="100" height="60" as="geometry" />
        </mxCell>
        <mxCell id="hyTh4UXsZ2b6pAhjTeu0-30" value="AWS SNS&#xa;(SMS &amp; Push)" style="rounded=1;whiteSpace=wrap;html=1;fillColor=#fff2cc;strokeColor=#d6b656;" vertex="1" parent="1">
          <mxGeometry x="1340" y="570" width="100" height="60" as="geometry" />
        </mxCell>
        <mxCell id="hyTh4UXsZ2b6pAhjTeu0-31" value="AWS S3&#xa;(File Storage)" style="rounded=1;whiteSpace=wrap;html=1;fillColor=#fff2cc;strokeColor=#d6b656;" vertex="1" parent="1">
          <mxGeometry x="1460" y="570" width="100" height="60" as="geometry" />
        </mxCell>
        <mxCell id="hyTh4UXsZ2b6pAhjTeu0-32" value="AWS Secrets&#xa;Manager" style="rounded=1;whiteSpace=wrap;html=1;fillColor=#fff2cc;strokeColor=#d6b656;" vertex="1" parent="1">
          <mxGeometry x="1220" y="640" width="100" height="60" as="geometry" />
        </mxCell>
        <mxCell id="hyTh4UXsZ2b6pAhjTeu0-33" value="AWS CloudWatch&#xa;(Monitoring)" style="rounded=1;whiteSpace=wrap;html=1;fillColor=#fff2cc;strokeColor=#d6b656;" vertex="1" parent="1">
          <mxGeometry x="1340" y="640" width="100" height="60" as="geometry" />
        </mxCell>
        <mxCell id="hyTh4UXsZ2b6pAhjTeu0-34" value="AWS Lambda&#xa;(Serverless)" style="rounded=1;whiteSpace=wrap;html=1;fillColor=#fff2cc;strokeColor=#d6b656;" vertex="1" parent="1">
          <mxGeometry x="1460" y="640" width="100" height="60" as="geometry" />
        </mxCell>
        <mxCell id="hyTh4UXsZ2b6pAhjTeu0-35" value="EXTERNAL SERVICES" style="rounded=1;whiteSpace=wrap;html=1;fillColor=#f8cecc;strokeColor=#b85450;fontSize=14;fontStyle=1;" vertex="1" parent="1">
          <mxGeometry x="1200" y="740" width="404" height="60" as="geometry" />
        </mxCell>
        <mxCell id="hyTh4UXsZ2b6pAhjTeu0-36" value="Stripe&#xa;Payment Gateway" style="rounded=1;whiteSpace=wrap;html=1;fillColor=#f8cecc;strokeColor=#b85450;" vertex="1" parent="1">
          <mxGeometry x="1220" y="820" width="100" height="60" as="geometry" />
        </mxCell>
        <mxCell id="hyTh4UXsZ2b6pAhjTeu0-37" value="Razorpay&#xa;Payment Gateway" style="rounded=1;whiteSpace=wrap;html=1;fillColor=#f8cecc;strokeColor=#b85450;" vertex="1" parent="1">
          <mxGeometry x="1340" y="820" width="100" height="60" as="geometry" />
        </mxCell>
        <mxCell id="hyTh4UXsZ2b6pAhjTeu0-38" value="Firebase&#xa;Push Notifications" style="rounded=1;whiteSpace=wrap;html=1;fillColor=#f8cecc;strokeColor=#b85450;" vertex="1" parent="1">
          <mxGeometry x="1460" y="820" width="100" height="60" as="geometry" />
        </mxCell>
        <mxCell id="hyTh4UXsZ2b6pAhjTeu0-39" value="DEPLOYMENT &amp; INFRASTRUCTURE" style="rounded=1;whiteSpace=wrap;html=1;fillColor=#d5e8d4;strokeColor=#82b366;fontSize=14;fontStyle=1;" vertex="1" parent="1">
          <mxGeometry x="820" y="960" width="784" height="60" as="geometry" />
        </mxCell>
        <mxCell id="hyTh4UXsZ2b6pAhjTeu0-40" value="Kubernetes&#xa;(Container Orchestration)" style="rounded=1;whiteSpace=wrap;html=1;fillColor=#d5e8d4;strokeColor=#82b366;" vertex="1" parent="1">
          <mxGeometry x="840" y="1040" width="120" height="80" as="geometry" />
        </mxCell>
        <mxCell id="hyTh4UXsZ2b6pAhjTeu0-41" value="Docker&#xa;(Containerization)" style="rounded=1;whiteSpace=wrap;html=1;fillColor=#d5e8d4;strokeColor=#82b366;" vertex="1" parent="1">
          <mxGeometry x="980" y="1040" width="120" height="80" as="geometry" />
        </mxCell>
        <mxCell id="hyTh4UXsZ2b6pAhjTeu0-42" value="Terraform&#xa;(Infrastructure as Code)" style="rounded=1;whiteSpace=wrap;html=1;fillColor=#d5e8d4;strokeColor=#82b366;" vertex="1" parent="1">
          <mxGeometry x="1120" y="1040" width="120" height="80" as="geometry" />
        </mxCell>
        <mxCell id="hyTh4UXsZ2b6pAhjTeu0-43" value="Jenkins&#xa;(CI/CD Pipeline)" style="rounded=1;whiteSpace=wrap;html=1;fillColor=#d5e8d4;strokeColor=#82b366;" vertex="1" parent="1">
          <mxGeometry x="1260" y="1040" width="120" height="80" as="geometry" />
        </mxCell>
        <mxCell id="hyTh4UXsZ2b6pAhjTeu0-44" value="Prometheus&#xa;(Metrics)" style="rounded=1;whiteSpace=wrap;html=1;fillColor=#d5e8d4;strokeColor=#82b366;" vertex="1" parent="1">
          <mxGeometry x="1400" y="1040" width="120" height="80" as="geometry" />
        </mxCell>
        <mxCell id="hyTh4UXsZ2b6pAhjTeu0-45" style="edgeStyle=orthogonalEdgeStyle;rounded=0;orthogonalLoop=1;jettySize=auto;html=1;exitX=0.5;exitY=1;exitDx=0;exitDy=0;entryX=0.5;entryY=0;entryDx=0;entryDy=0;" edge="1" parent="1" source="hyTh4UXsZ2b6pAhjTeu0-3" target="hyTh4UXsZ2b6pAhjTeu0-7">
          <mxGeometry relative="1" as="geometry" />
        </mxCell>
        <mxCell id="hyTh4UXsZ2b6pAhjTeu0-46" style="edgeStyle=orthogonalEdgeStyle;rounded=0;orthogonalLoop=1;jettySize=auto;html=1;exitX=0.5;exitY=1;exitDx=0;exitDy=0;entryX=0.5;entryY=0;entryDx=0;entryDy=0;" edge="1" parent="1" source="hyTh4UXsZ2b6pAhjTeu0-4" target="hyTh4UXsZ2b6pAhjTeu0-8">
          <mxGeometry relative="1" as="geometry" />
        </mxCell>
        <mxCell id="hyTh4UXsZ2b6pAhjTeu0-47" style="edgeStyle=orthogonalEdgeStyle;rounded=0;orthogonalLoop=1;jettySize=auto;html=1;exitX=0.5;exitY=1;exitDx=0;exitDy=0;entryX=0.5;entryY=0;entryDx=0;entryDy=0;" edge="1" parent="1" source="hyTh4UXsZ2b6pAhjTeu0-5" target="hyTh4UXsZ2b6pAhjTeu0-9">
          <mxGeometry relative="1" as="geometry" />
        </mxCell>
        <mxCell id="hyTh4UXsZ2b6pAhjTeu0-48" style="edgeStyle=orthogonalEdgeStyle;rounded=0;orthogonalLoop=1;jettySize=auto;html=1;exitX=0.5;exitY=1;exitDx=0;exitDy=0;entryX=0.5;entryY=0;entryDx=0;entryDy=0;" edge="1" parent="1" source="hyTh4UXsZ2b6pAhjTeu0-8" target="hyTh4UXsZ2b6pAhjTeu0-14">
          <mxGeometry relative="1" as="geometry" />
        </mxCell>
        <mxCell id="hyTh4UXsZ2b6pAhjTeu0-49" style="edgeStyle=orthogonalEdgeStyle;rounded=0;orthogonalLoop=1;jettySize=auto;html=1;exitX=0.5;exitY=1;exitDx=0;exitDy=0;entryX=0.5;entryY=0;entryDx=0;entryDy=0;" edge="1" parent="1" source="hyTh4UXsZ2b6pAhjTeu0-11" target="hyTh4UXsZ2b6pAhjTeu0-24">
          <mxGeometry relative="1" as="geometry" />
        </mxCell>
        <mxCell id="hyTh4UXsZ2b6pAhjTeu0-50" style="edgeStyle=orthogonalEdgeStyle;rounded=0;orthogonalLoop=1;jettySize=auto;html=1;exitX=0.5;exitY=1;exitDx=0;exitDy=0;entryX=0.5;entryY=0;entryDx=0;entryDy=0;" edge="1" parent="1" source="hyTh4UXsZ2b6pAhjTeu0-12" target="hyTh4UXsZ2b6pAhjTeu0-25">
          <mxGeometry relative="1" as="geometry" />
        </mxCell>
        <mxCell id="hyTh4UXsZ2b6pAhjTeu0-51" style="edgeStyle=orthogonalEdgeStyle;rounded=0;orthogonalLoop=1;jettySize=auto;html=1;exitX=0.5;exitY=1;exitDx=0;exitDy=0;entryX=0.5;entryY=0;entryDx=0;entryDy=0;" edge="1" parent="1" source="hyTh4UXsZ2b6pAhjTeu0-15" target="hyTh4UXsZ2b6pAhjTeu0-26">
          <mxGeometry relative="1" as="geometry" />
        </mxCell>
        <mxCell id="hyTh4UXsZ2b6pAhjTeu0-52" style="edgeStyle=orthogonalEdgeStyle;rounded=0;orthogonalLoop=1;jettySize=auto;html=1;exitX=1;exitY=0.5;exitDx=0;exitDy=0;entryX=0;entryY=0.5;entryDx=0;entryDy=0;" edge="1" parent="1" source="hyTh4UXsZ2b6pAhjTeu0-17" target="hyTh4UXsZ2b6pAhjTeu0-29">
          <mxGeometry relative="1" as="geometry">
            <Array as="points">
              <mxPoint x="1220" y="600" />
            </Array>
          </mxGeometry>
        </mxCell>
        <mxCell id="hyTh4UXsZ2b6pAhjTeu0-53" style="edgeStyle=orthogonalEdgeStyle;rounded=0;orthogonalLoop=1;jettySize=auto;html=1;exitX=1;exitY=0.5;exitDx=0;exitDy=0;entryX=0;entryY=0.5;entryDx=0;entryDy=0;" edge="1" parent="1" source="hyTh4UXsZ2b6pAhjTeu0-16" target="hyTh4UXsZ2b6pAhjTeu0-36">
          <mxGeometry relative="1" as="geometry">
            <Array as="points">
              <mxPoint x="1050" y="600" />
              <mxPoint x="1050" y="850" />
            </Array>
          </mxGeometry>
        </mxCell>
        <mxCell id="hyTh4UXsZ2b6pAhjTeu0-54" style="edgeStyle=orthogonalEdgeStyle;rounded=0;orthogonalLoop=1;jettySize=auto;html=1;exitX=0.5;exitY=1;exitDx=0;exitDy=0;dashed=1;dashPattern=5 5;" edge="1" parent="1" source="hyTh4UXsZ2b6pAhjTeu0-14">
          <mxGeometry relative="1" as="geometry">
            <mxPoint x="280" y="750" as="targetPoint" />
          </mxGeometry>
        </mxCell>
        <mxCell id="hyTh4UXsZ2b6pAhjTeu0-55" value="LEGEND" style="rounded=1;whiteSpace=wrap;html=1;fillColor=#f5f5f5;strokeColor=#666666;fontSize=12;fontStyle=1;" vertex="1" parent="1">
          <mxGeometry x="50" y="1150" width="100" height="30" as="geometry" />
        </mxCell>
        <mxCell id="hyTh4UXsZ2b6pAhjTeu0-56" value="Current Project" style="rounded=1;whiteSpace=wrap;html=1;fillColor=#ffe6cc;strokeColor=#d79b00;" vertex="1" parent="1">
          <mxGeometry x="170" y="1150" width="100" height="30" as="geometry" />
        </mxCell>
        <mxCell id="hyTh4UXsZ2b6pAhjTeu0-57" value="Microservices" style="rounded=1;whiteSpace=wrap;html=1;fillColor=#d5e8d4;strokeColor=#82b366;" vertex="1" parent="1">
          <mxGeometry x="290" y="1150" width="100" height="30" as="geometry" />
        </mxCell>
        <mxCell id="hyTh4UXsZ2b6pAhjTeu0-58" value="AWS Services" style="rounded=1;whiteSpace=wrap;html=1;fillColor=#fff2cc;strokeColor=#d6b656;" vertex="1" parent="1">
          <mxGeometry x="410" y="1150" width="100" height="30" as="geometry" />
        </mxCell>
        <mxCell id="hyTh4UXsZ2b6pAhjTeu0-59" value="External APIs" style="rounded=1;whiteSpace=wrap;html=1;fillColor=#f8cecc;strokeColor=#b85450;" vertex="1" parent="1">
          <mxGeometry x="530" y="1150" width="100" height="30" as="geometry" />
        </mxCell>
      </root>
    </mxGraphModel>
  </diagram>
</mxfile>
